<?xml version="1.0" encoding="utf-8"?>
<!-- Generator: Adobe Illustrator 16.0.0, SVG Export Plug-In . SVG Version: 6.00 Build 0)  -->
<!DOCTYPE svg PUBLIC "-//W3C//DTD SVG 1.1//EN" "http://www.w3.org/Graphics/SVG/1.1/DTD/svg11.dtd">
<svg version="1.1" id="SemiBold" xmlns="http://www.w3.org/2000/svg" xmlns:xlink="http://www.w3.org/1999/xlink" x="0px" y="0px"
	 width="216.458px" height="75.107px" viewBox="0 0 216.458 75.107" enable-background="new 0 0 216.458 75.107"
	 xml:space="preserve">
<path fill="#333" stroke="#FFFFFF" stroke-width="1.5" stroke-miterlimit="10" d="M215.708,63.768c0,6.53-4.797,10.59-11.322,10.59H12.571
	c-6.528,0-11.821-5.297-11.821-11.827V12.574C0.75,6.045,6.043,0.75,12.571,0.75h191.814c6.525,0,11.322,5.295,11.322,11.824V63.768
	z"/>
<g>
	<g>
		<path fill="#FFFFFF" d="M147.651,53.585l-1.614,1.522c-0.372,0.205-0.743,0.443-1.113,0.612c-1.121,0.509-2.261,0.637-3.274,0.637
			c-1.078,0-2.768-0.069-4.491-1.316c-2.396-1.688-3.442-4.587-3.442-7.114c0-5.232,4.259-7.798,7.732-7.798
			c1.215,0,2.462,0.304,3.476,0.945c1.686,1.114,2.122,2.563,2.364,3.34l-7.934,3.205l-2.598,0.202
			c0.841,4.289,3.743,6.784,6.95,6.784c1.602,0,2.791-0.522,3.882-1.062C147.589,53.543,147.808,53.429,147.651,53.585z
			 M142.865,45.052c0.645-0.234,0.979-0.437,0.979-0.906c0-1.348-1.525-2.904-3.345-2.904c-1.349,0-3.879,1.05-3.879,4.695
			c0,0.569,0.067,1.175,0.102,1.781L142.865,45.052z"/>
		<path fill="#FFFFFF" d="M131.064,53.323c0,1.312,0.234,1.516,1.343,1.618c0.578,0.068,1.154,0.099,1.725,0.166l-1.248,0.743
			h-5.947c0.78-1.012,0.914-1.112,0.914-1.787v-0.753l-0.013-20.063h-2.626l2.527-1.218h4.826c-1.046,0.605-1.358,0.975-1.493,2.155
			L131.064,53.323z"/>
		<path fill="#FFFFFF" d="M121.842,41.784c0.774,0.637,2.392,1.988,2.392,4.553c0,2.499-1.409,3.677-2.83,4.792
			c-0.436,0.438-0.945,0.915-0.945,1.651c0,0.746,0.51,1.151,0.877,1.453l1.219,0.941c1.482,1.251,2.833,2.398,2.833,4.728
			c0,3.175-3.072,6.375-8.877,6.375c-4.89,0-7.254-2.328-7.254-4.825c0-1.216,0.604-2.937,2.601-4.115
			c2.092-1.279,4.927-1.45,6.444-1.55c-0.474-0.612-1.015-1.253-1.015-2.299c0-0.572,0.172-0.913,0.338-1.315
			c-0.369,0.035-0.741,0.071-1.079,0.071c-3.579,0-5.603-2.67-5.603-5.302c0-1.552,0.708-3.273,2.162-4.521
			c1.924-1.584,4.218-1.857,6.041-1.857h6.954l-2.162,1.221H121.842z M119.45,56.765c-0.276-0.036-0.442-0.036-0.776-0.036
			c-0.306,0-2.129,0.066-3.541,0.54c-0.747,0.273-2.906,1.08-2.906,3.478c0,2.392,2.331,4.116,5.938,4.116
			c3.239,0,4.96-1.553,4.96-3.644C123.124,59.498,122.011,58.59,119.45,56.765z M120.421,50.353c0.78-0.778,0.848-1.854,0.848-2.466
			c0-2.427-1.447-6.207-4.252-6.207c-0.875,0-1.823,0.439-2.361,1.118c-0.57,0.703-0.741,1.615-0.741,2.492
			c0,2.26,1.317,6.008,4.217,6.008C118.977,51.298,119.887,50.887,120.421,50.353z"/>
		<path fill="#FFFFFF" d="M100.92,56.287c-5.364,0-8.234-4.178-8.234-7.959c0-4.419,3.608-8.2,8.74-8.2
			c4.961,0,8.068,3.884,8.068,7.962C109.494,52.072,106.423,56.287,100.92,56.287z M105.14,53.557
			c0.816-1.08,1.014-2.428,1.014-3.742c0-2.972-1.416-8.64-5.601-8.64c-1.113,0-2.234,0.435-3.042,1.146
			c-1.318,1.181-1.553,2.664-1.553,4.12c0,3.334,1.647,8.833,5.737,8.833C103.016,55.273,104.362,54.635,105.14,53.557z"/>
		<path fill="#FFFFFF" d="M82.961,56.287c-5.365,0-8.23-4.178-8.23-7.959c0-4.419,3.609-8.2,8.739-8.2
			c4.958,0,8.062,3.884,8.062,7.962C91.531,52.072,88.465,56.287,82.961,56.287z M87.182,53.557c0.81-1.08,1.012-2.428,1.012-3.742
			c0-2.972-1.42-8.64-5.601-8.64c-1.117,0-2.226,0.435-3.036,1.146c-1.32,1.181-1.554,2.664-1.554,4.12
			c0,3.334,1.654,8.833,5.737,8.833C85.058,55.273,86.402,54.635,87.182,53.557z"/>
		<path fill="#FFFFFF" d="M72.586,55.116l-4.524,1.035c-1.833,0.289-3.479,0.544-5.222,0.544c-8.727,0-12.051-6.424-12.051-11.45
			c0-6.14,4.711-11.831,12.778-11.831c1.707,0,3.35,0.251,4.846,0.658c2.371,0.667,3.479,1.487,4.173,1.969l-2.628,2.496
			l-1.108,0.248l0.79-1.26c-1.07-1.045-3.037-2.974-6.77-2.974c-4.991,0-8.757,3.794-8.757,9.333c0,5.949,4.3,11.545,11.194,11.545
			c2.026,0,3.069-0.407,4.016-0.787v-5.1L64.547,49.8l2.532-1.36h6.703l-0.819,0.789c-0.222,0.188-0.251,0.252-0.313,0.504
			c-0.033,0.288-0.063,1.204-0.063,1.526V55.116z"/>
	</g>
	<g>
		<path fill="#FFFFFF" d="M157.379,53.729v8.596h-1.707V40.453h1.707v2.49c1.111-1.609,3.144-2.886,5.504-2.886
			c4.232,0,7.084,3.211,7.084,8.294c0,5.049-2.852,8.327-7.084,8.327C160.654,56.679,158.659,55.53,157.379,53.729z M168.133,48.352
			c0-3.831-1.997-6.753-5.538-6.753c-2.199,0-4.302,1.729-5.216,3.235v7.001c0.914,1.51,3.017,3.301,5.216,3.301
			C166.136,55.136,168.133,52.188,168.133,48.352z"/>
		<path fill="#FFFFFF" d="M172.298,56.285V34.414h1.706v21.871H172.298z"/>
		<path fill="#FFFFFF" d="M193.158,60.91c0.364,0.162,0.987,0.263,1.383,0.263c1.044,0,1.771-0.427,2.424-1.936l1.245-2.82
			l-6.725-15.964h1.904l5.769,13.834l5.712-13.834h1.931L198.6,59.767c-0.851,1.99-2.189,2.947-4.029,2.947
			c-0.552,0-1.279-0.099-1.706-0.229L193.158,60.91z"/>
		<path fill="#FFFFFF" d="M188.172,56.237c-0.114-0.549-0.2-1.032-0.263-1.437c-0.053-0.403-0.082-0.815-0.082-1.234
			c-0.586,0.859-1.415,1.574-2.474,2.138c-1.06,0.566-2.066,0.845-3.448,0.845c-1.663,0-2.953-0.409-3.875-1.239
			c-0.918-0.829-1.38-1.952-1.38-3.373c0-1.419,0.669-2.571,2.003-3.452c1.334-0.885,3.059-1.324,5.192-1.324h3.981v-1.968
			c0-1.133-0.387-2.023-1.157-2.67c-0.774-0.646-1.86-0.974-3.269-0.974c-1.287,0-2.331,0.299-3.126,0.881
			c-0.788,0.594-1.185,1.33-1.185,2.217h-1.747l-0.036-0.085c-0.063-1.195,0.484-2.245,1.647-3.15
			c1.157-0.905,2.675-1.36,4.542-1.36c1.86,0,3.366,0.448,4.502,1.342c1.134,0.885,1.703,2.164,1.703,3.836v7.811
			c0,0.561,0.026,1.103,0.097,1.631c0.072,0.529,0.187,1.057,0.34,1.567H188.172z M182.114,54.994c1.45,0,2.492-0.324,3.558-0.965
			c1.058-0.638,1.777-1.469,2.155-2.475v-3.04h-4c-1.528,0-2.793,0.338-3.788,1.021c-0.997,0.68-1.503,1.503-1.503,2.46
			c0,0.902,0.32,1.625,0.957,2.172C180.131,54.72,181.003,54.994,182.114,54.994z"/>
	</g>
</g>
<g>
	<polygon fill="none" points="28.499,47.46 33.975,41.984 33.973,41.984 28.499,47.46 11.021,29.984 11.021,29.984 28.499,47.463 
		10.993,64.969 10.993,64.969 28.499,47.463 33.999,52.963 34.002,52.963 	"/>
	
		<linearGradient id="SVGID_1_" gradientUnits="userSpaceOnUse" x1="513.2959" y1="-440.2798" x2="490.2187" y2="-454.7224" gradientTransform="matrix(0.7071 0.7071 -0.7071 0.7071 -649.4584 -5.5737)">
		<stop  offset="0" style="stop-color:#D6FFA1"/>
		<stop  offset="0.3264" style="stop-color:#93E2A7"/>
		<stop  offset="1" style="stop-color:#00A3B5"/>
	</linearGradient>
	<path fill="url(#SVGID_1_)" d="M33.973,41.984L12.636,30.252c-0.604-0.331-1.163-0.408-1.615-0.268L28.499,47.46L33.973,41.984z"/>
	
		<linearGradient id="SVGID_2_" gradientUnits="userSpaceOnUse" x1="499.8809" y1="-452.6167" x2="529.7987" y2="-444.7958" gradientTransform="matrix(0.7071 0.7071 -0.7071 0.7071 -649.4584 -5.5737)">
		<stop  offset="0" style="stop-color:#FF177B"/>
		<stop  offset="0.6721" style="stop-color:#FFA976"/>
		<stop  offset="1" style="stop-color:#FFEC73"/>
	</linearGradient>
	<path fill="url(#SVGID_2_)" d="M34.002,52.963l7.283-4.005c1.477-0.815,1.477-2.142,0-2.954l-7.311-4.02l-5.476,5.476
		L34.002,52.963z"/>
	
		<linearGradient id="SVGID_3_" gradientUnits="userSpaceOnUse" x1="516.5801" y1="-429.3267" x2="484.1356" y2="-448.415" gradientTransform="matrix(0.7071 0.7071 -0.7071 0.7071 -649.4584 -5.5737)">
		<stop  offset="0" style="stop-color:#63FFD4"/>
		<stop  offset="0.4854" style="stop-color:#32A0BA"/>
		<stop  offset="0.8349" style="stop-color:#1262A9"/>
		<stop  offset="1" style="stop-color:#064AA2"/>
	</linearGradient>
	<path fill="url(#SVGID_3_)" d="M11.021,29.984c-0.649,0.203-1.069,0.86-1.069,1.854l0.004,31.284c0,0.982,0.407,1.63,1.038,1.846
		l17.506-17.506L11.021,29.984z"/>
	
		<linearGradient id="SVGID_4_" gradientUnits="userSpaceOnUse" x1="528.3594" y1="-444.4814" x2="508.3827" y2="-418.1631" gradientTransform="matrix(0.7071 0.7071 -0.7071 0.7071 -649.4584 -5.5737)">
		<stop  offset="0" style="stop-color:#FF4521"/>
		<stop  offset="0.3411" style="stop-color:#D43E65"/>
		<stop  offset="0.7935" style="stop-color:#9F36B9"/>
		<stop  offset="1" style="stop-color:#8A33DB"/>
	</linearGradient>
	<path fill="url(#SVGID_4_)" d="M10.993,64.969c0.454,0.154,1.024,0.082,1.643-0.258l21.363-11.748l-5.5-5.5L10.993,64.969z"/>
</g>
<g>
	<g>
		<path fill="#FFFFFF" d="M50.747,16.473c0-3.361,2.497-5.522,5.603-5.522c2.081,0,3.441,0.992,4.29,2.209l-1.521,0.881
			c-0.576-0.801-1.585-1.425-2.77-1.425c-2.112,0-3.682,1.601-3.682,3.857c0,2.225,1.569,3.857,3.682,3.857
			c1.089,0,2.049-0.496,2.529-0.96v-1.649h-3.201v-1.648h5.058v3.985c-1.04,1.169-2.545,1.953-4.386,1.953
			C53.244,22.011,50.747,19.818,50.747,16.473z"/>
		<path fill="#FFFFFF" d="M63.052,21.803V11.126h7.314v1.649h-5.442v2.753h5.331v1.648h-5.331v2.978h5.442v1.648H63.052z"/>
		<path fill="#FFFFFF" d="M75.549,21.803v-9.027h-3.233v-1.649h8.339v1.649h-3.232v9.027H75.549z"/>
		<path fill="#FFFFFF" d="M87.164,21.803V11.126h1.872v10.677H87.164z"/>
		<path fill="#FFFFFF" d="M94.252,21.803v-9.027h-3.233v-1.649h8.339v1.649h-3.232v9.027H94.252z"/>
		<path fill="#FFFFFF" d="M105.402,16.473c0-3.186,2.257-5.522,5.459-5.522c3.185,0,5.458,2.337,5.458,5.522
			s-2.273,5.522-5.458,5.522C107.659,21.995,105.402,19.658,105.402,16.473z M114.398,16.473c0-2.209-1.393-3.857-3.537-3.857
			c-2.161,0-3.538,1.648-3.538,3.857c0,2.192,1.377,3.857,3.538,3.857C113.006,20.33,114.398,18.665,114.398,16.473z"/>
		<path fill="#FFFFFF" d="M125.949,21.803l-5.57-7.635v7.635h-1.872V11.126h1.921l5.458,7.396v-7.396h1.873v10.677H125.949z"/>
	</g>
</g>
</svg>
